# xmcd
#
# Track frame offsets:
# 150
# 35038
# 67000
# 100912
# 146526
# 172674
# 216282
# 247920
# 304891
#
# Disc length: 4363 seconds
#
#
# Revision: 0
# Processed by: cddbd v1.5.2PL0 Copyright (c) Steve Scherf et al.
# Submitted via: FreeRIP 2.96 
#
DISCID=7c110909
DTITLE=Gerritsen, Tess - Todsünde CD4v6
DYEAR=2009
DGENRE=Speech
TTITLE0=27 - Todsünde
TTITLE1=28 - Todsünde
TTITLE2=29 - Todsünde
TTITLE3=30 - Todsünde
TTITLE4=31 - Todsünde
TTITLE5=32 - Todsünde
TTITLE6=33 - Todsünde
TTITLE7=34 - Todsünde
TTITLE8=35 - Todsünde
EXTD=gelesen von Michael Hansonis
EXTT0=
EXTT1=
EXTT2=
EXTT3=
EXTT4=
EXTT5=
EXTT6=
EXTT7=
EXTT8=
PLAYORDER=
